<?xml version="1.0" encoding="UTF-8"?>
<svg id="Camada_2" data-name="Camada 2" xmlns="http://www.w3.org/2000/svg" viewBox="0 0 322.97 99.17">
  <defs>
    <style>
      .cls-1 {
        fill: #fff;
      }

      .cls-2 {
        fill-rule: evenodd;
      }

      .cls-2, .cls-3 {
        fill: #ccfe04;
      }
    </style>
  </defs>
  <g id="Camada_1-2" data-name="Camada 1">
    <g id="LOGO-WHITECOLOR-VERTICAL">
      <g>
        <g>
          <path class="cls-1" d="M123.08,19.9c0-2.66,0-5.33.01-7.99,0-2.66.02-5.33,0-7.99,0-1.05.4-2.01,1.11-2.72.71-.74,1.68-1.2,2.8-1.2h31.78c.02.67.01,1.35,0,2.02,0,.81,0,1.62.01,2.44-.02.82-.7,1.49-1.5,1.49h-21.55c-.48,0-.88.34-.97.78-.03.07-.04.15-.04.23.01,1.17.01,2.34,0,3.51.01,1.44.01,2.88.01,4.31,0,1.44-.02,2.87-.01,4.31,0,.08.01.15,0,.23.12.45.5.78,1.01.78h23.03c.02.67.01,1.35,0,2.02,0,.82,0,1.63,0,2.44,0,.82-.68,1.48-1.5,1.48h-30.28c-2.15,0-3.95-1.77-3.93-3.92,0-.74,0-1.47,0-2.21Z"/>
          <path class="cls-1" d="M161.83,22.12c0-3.03,0-6.07,0-9.09,0-3.03,0-6.06,0-9.1,0-2.16,1.77-3.92,3.94-3.92h31.15c2.15,0,3.92,1.76,3.92,3.92,0,3.03,0,6.07,0,9.1,0,3.03,0,6.06,0,9.09,0,2.16-1.75,3.92-3.92,3.92h-31.15c-2.15,0-3.94-1.77-3.94-3.92ZM174.5,20.1h13.67c.57,0,1.01-.46,1.01-1.01,0-2.02,0-4.04,0-6.06,0-2.02,0-4.04,0-6.07,0-.55-.43-1.01-1-1.01h-13.69c-.55,0-.99.46-.99,1.01,0,2.03,0,4.04,0,6.07,0,2.02,0,4.04,0,6.06,0,.55.43,1.01,1,1.01Z"/>
          <path class="cls-1" d="M222.74,18.42c-2.42-2.23-4.87-4.44-7.27-6.67,0,2.38,0,4.77,0,7.15,0,2.38,0,4.76-.02,7.14h-11.63c0-4.34,0-8.68,0-13.02,0-4.34,0-8.68,0-13.02h10.32c.94,0,1.8.33,2.51.97,2.4,2.22,4.85,4.44,7.26,6.66,2.4,2.21,4.84,4.44,7.29,6.66,0-2.38,0-4.76,0-7.14,0-2.38,0-4.76,0-7.15h11.65c0,4.34,0,8.68,0,13.02,0,4.34,0,8.68,0,13.02h-10.36c-.9,0-1.76-.33-2.46-.96-2.44-2.22-4.88-4.45-7.29-6.67Z"/>
        </g>
        <g>
          <path class="cls-1" d="M134.71,52.02c0,1.52,0,3.03.02,4.55h-11.62c-.02-1.52-.02-3.03-.02-4.55s0-3.03,0-4.55c0-.32,0-.63,0-.95,0-2.01.02-4.02.01-6.03,0-2.01,0-4.02-.01-6.04,0-1.05.41-2.01,1.08-2.72.7-.74,1.71-1.21,2.81-1.21h31.78c.01.68,0,1.35.02,2.02,0,.81,0,1.62,0,2.44,0,.81-.68,1.48-1.5,1.48h-21.56c-.45,0-.88.34-1,.78.02.07-.02.15-.02.23,0,1.03,0,2.06.01,3.09h20.74c0,.67-.02,1.35,0,2.02v2.44c0,.82-.68,1.49-1.47,1.49h-19.28c0,.32,0,.63,0,.95,0,1.52,0,3.04,0,4.55Z"/>
          <path class="cls-1" d="M179.01,48.63h-5.18c0,.75,0,1.49,0,2.24,0,1.9.01,3.8,0,5.71h-11.65c.02-1.9.01-3.8,0-5.71,0-1.2,0-2.41,0-3.62,0-2.78,0-5.58-.01-8.36,0-2.79,0-5.58-.01-8.36h32.89c2.16,0,3.92,1.77,3.92,3.93,0,1.71,0,3.42,0,5.13s.01,3.42,0,5.13c.02,2.16-1.75,3.92-3.91,3.92h-2.73c1.08,1.32,2.21,2.64,3.32,3.97,1.09,1.31,2.2,2.65,3.32,3.97h-11.9c-.9,0-1.69-.37-2.26-1.05-1.94-2.3-3.89-4.59-5.79-6.89ZM186.31,42.68c.55,0,1-.45,1-1.01,0-1.39-.01-2.79,0-4.19,0-.56-.45-1.01-.99-1.01h-12.51c.02,2.07.02,4.14.02,6.21h12.49Z"/>
          <path class="cls-1" d="M201.59,52.64c0-3.03,0-6.07,0-9.09,0-3.03,0-6.06,0-9.1,0-2.16,1.77-3.92,3.94-3.92h31.15c2.15,0,3.92,1.76,3.92,3.92,0,3.03,0,6.07,0,9.1,0,3.03,0,6.06,0,9.09,0,2.16-1.75,3.92-3.92,3.92h-31.15c-2.15,0-3.94-1.77-3.94-3.92ZM214.26,50.62h13.67c.57,0,1.01-.46,1.01-1.01,0-2.02,0-4.04,0-6.06,0-2.02,0-4.04,0-6.07,0-.55-.43-1.01-1-1.01h-13.69c-.55,0-.99.46-.99,1.01,0,2.03,0,4.04,0,6.07,0,2.02,0,4.04,0,6.06,0,.55.43,1.01,1,1.01Z"/>
          <path class="cls-1" d="M262.49,48.95c-2.42-2.23-4.86-4.44-7.26-6.67,0,2.38,0,4.77,0,7.15,0,2.38,0,4.76-.02,7.14h-11.63c0-4.34,0-8.68,0-13.02,0-4.34,0-8.68,0-13.02h10.32c.94,0,1.8.33,2.51.97,2.4,2.22,4.85,4.44,7.26,6.66,2.4,2.21,4.84,4.44,7.29,6.66,0-2.38,0-4.76,0-7.14,0-2.38,0-4.76,0-7.15h11.65c0,4.34,0,8.68,0,13.02,0,4.34,0,8.68,0,13.02h-10.36c-.9,0-1.76-.33-2.46-.96-2.44-2.22-4.88-4.45-7.29-6.67Z"/>
          <path class="cls-1" d="M298.39,56.57c0-3.35,0-6.7,0-10.05,0-3.35,0-6.7-.02-10.05h-12.93c0-1.98,0-3.96.02-5.95h37.5c0,1.49,0,2.98,0,4.46,0,.82-.67,1.49-1.49,1.49h-11.46c.02,3.35.02,6.7.02,10.05,0,3.35,0,6.7,0,10.05h-11.65Z"/>
        </g>
      </g>
      <g>
        <path class="cls-1" d="M123.08,77.11c0-2.41,1.85-4.13,4.33-4.13,1.38,0,2.53.5,3.29,1.41l-1.19,1.1c-.54-.62-1.21-.94-2.01-.94-1.49,0-2.56,1.05-2.56,2.56s1.06,2.56,2.56,2.56c.8,0,1.47-.32,2.01-.95l1.19,1.1c-.75.92-1.9,1.43-3.3,1.43-2.48,0-4.32-1.72-4.32-4.13Z"/>
        <path class="cls-1" d="M134.24,77.11c0-2.37,1.85-4.13,4.37-4.13s4.37,1.75,4.37,4.13-1.86,4.13-4.37,4.13-4.37-1.76-4.37-4.13ZM141.11,77.11c0-1.52-1.07-2.56-2.5-2.56s-2.5,1.04-2.5,2.56,1.07,2.56,2.5,2.56,2.5-1.04,2.5-2.56Z"/>
        <path class="cls-1" d="M154.67,73.12v7.99h-1.52l-3.98-4.85v4.85h-1.83v-7.99h1.53l3.97,4.85v-4.85h1.83Z"/>
        <path class="cls-1" d="M161.19,74.62h-2.56v-1.51h6.96v1.51h-2.56v6.48h-1.85v-6.48Z"/>
        <path class="cls-1" d="M174.42,79.39h-3.71l-.71,1.71h-1.89l3.56-7.99h1.83l3.57,7.99h-1.94l-.71-1.71ZM173.84,77.99l-1.27-3.06-1.27,3.06h2.53Z"/>
        <path class="cls-1" d="M188.19,78.92c0,1.38-1.1,2.18-3.19,2.18h-4.13v-7.99h3.9c2,0,3.02.83,3.02,2.08,0,.8-.41,1.41-1.06,1.76.89.29,1.46.97,1.46,1.97ZM182.71,74.51v1.88h1.84c.9,0,1.39-.32,1.39-.95s-.49-.94-1.39-.94h-1.84ZM186.33,78.73c0-.67-.51-.99-1.47-.99h-2.16v1.97h2.16c.96,0,1.47-.3,1.47-.98Z"/>
        <path class="cls-1" d="M192.57,73.12h1.85v7.99h-1.85v-7.99Z"/>
        <path class="cls-1" d="M199.28,73.12h1.85v6.48h4v1.51h-5.85v-7.99Z"/>
        <path class="cls-1" d="M209.14,73.12h1.85v7.99h-1.85v-7.99Z"/>
        <path class="cls-1" d="M215.85,73.12h3.63c2.61,0,4.4,1.57,4.4,3.99s-1.79,3.99-4.4,3.99h-3.63v-7.99ZM219.39,79.58c1.59,0,2.62-.95,2.62-2.48s-1.04-2.48-2.62-2.48h-1.69v4.95h1.69Z"/>
        <path class="cls-1" d="M233.39,79.39h-3.71l-.71,1.71h-1.89l3.56-7.99h1.83l3.57,7.99h-1.94l-.71-1.71ZM232.81,77.99l-1.27-3.06-1.27,3.06h2.53Z"/>
        <path class="cls-1" d="M239.85,73.12h3.63c2.61,0,4.4,1.57,4.4,3.99s-1.79,3.99-4.4,3.99h-3.63v-7.99ZM243.38,79.58c1.59,0,2.62-.95,2.62-2.48s-1.04-2.48-2.62-2.48h-1.69v4.95h1.69Z"/>
        <path class="cls-1" d="M258.42,79.62v1.48h-6.18v-7.99h6.03v1.48h-4.2v1.73h3.71v1.44h-3.71v1.85h4.35Z"/>
        <g>
          <path class="cls-1" d="M129.27,95.04v1.48h-6.18v-7.99h6.03v1.48h-4.2v1.73h3.71v1.44h-3.71v1.85h4.35Z"/>
          <path class="cls-1" d="M141.75,90.02v2.11h3.7v1.48h-3.7v2.91h-1.85v-7.99h6.03v1.48h-4.19Z"/>
          <path class="cls-1" d="M150.17,88.53h1.85v7.99h-1.85v-7.99Z"/>
          <path class="cls-1" d="M164.2,88.53v7.99h-1.52l-3.98-4.85v4.85h-1.83v-7.99h1.53l3.97,4.85v-4.85h1.83Z"/>
          <path class="cls-1" d="M174.33,94.81h-3.71l-.71,1.71h-1.89l3.56-7.99h1.83l3.57,7.99h-1.94l-.71-1.71ZM173.75,93.4l-1.27-3.06-1.27,3.06h2.53Z"/>
          <path class="cls-1" d="M188.1,88.53v7.99h-1.52l-3.98-4.85v4.85h-1.83v-7.99h1.53l3.97,4.85v-4.85h1.83Z"/>
          <path class="cls-1" d="M198.9,94.13l1.19,1.1c-.72.89-1.81,1.38-3.13,1.43l-.1.43c.7.08.99.48.99.95,0,.7-.66,1.13-1.68,1.13-.4,0-.8-.09-1.06-.24l.27-.76c.22.1.47.17.74.17.42,0,.59-.15.59-.37,0-.19-.16-.33-.56-.33h-.39l.25-1.04c-2.08-.32-3.56-1.92-3.56-4.07,0-2.41,1.85-4.13,4.33-4.13,1.38,0,2.53.5,3.29,1.41l-1.19,1.1c-.54-.62-1.21-.94-2.01-.94-1.49,0-2.56,1.05-2.56,2.56s1.06,2.56,2.56,2.56c.8,0,1.47-.32,2.01-.95Z"/>
          <path class="cls-1" d="M209.4,94.81h-3.71l-.71,1.71h-1.89l3.56-7.99h1.83l3.57,7.99h-1.94l-.71-1.71ZM208.82,93.4l-1.27-3.06-1.27,3.06h2.53Z"/>
          <path class="cls-1" d="M215.23,95.73l.63-1.39c.67.49,1.68.83,2.64.83,1.1,0,1.54-.37,1.54-.86,0-1.49-4.64-.47-4.64-3.43,0-1.36,1.1-2.49,3.37-2.49,1,0,2.03.24,2.77.71l-.57,1.4c-.74-.42-1.51-.63-2.21-.63-1.1,0-1.52.41-1.52.91,0,1.47,4.64.46,4.64,3.39,0,1.33-1.11,2.48-3.39,2.48-1.27,0-2.54-.38-3.25-.92Z"/>
        </g>
      </g>
      <g>
        <path class="cls-2" d="M0,68.39c0,17,13.78,30.78,30.78,30.78h68.39l-13.21-13.21h-50.17c-12.47,0-22.58-10.11-22.58-22.58V13.21h50.17c12.47,0,22.58,10.11,22.58,22.58v20.07h13.21v-25.08c0-17-13.78-30.78-30.78-30.78H0v68.39Z"/>
        <path class="cls-3" d="M62.44,34.24H24.01s0-12.85,0-12.85h25.58c7.1,0,12.85,5.75,12.85,12.85h0ZM36.78,77.73c-7.05,0-12.76-5.71-12.76-12.76v-22.28s38.21,0,38.21,0c7.14,0,12.94,5.79,12.94,12.94h0s-38.38,0-38.38,0v22.11"/>
      </g>
    </g>
  </g>
</svg>